<?xml version="1.0" standalone="no"?>
<!DOCTYPE svg PUBLIC "-//W3C//DTD SVG 20010904//EN"
 "http://www.w3.org/TR/2001/REC-SVG-20010904/DTD/svg10.dtd">
<svg version="1.0" xmlns="http://www.w3.org/2000/svg"
 width="2560.000000pt" height="1440.000000pt" viewBox="0 0 2560.000000 1440.000000"
 preserveAspectRatio="xMidYMid meet">

<g transform="translate(0.000000,1440.000000) scale(0.100000,-0.100000)"
fill="#FF0000" stroke="none">
<path d="M12330 13354 c-611 -24 -1032 -57 -1527 -119 -2031 -255 -3885 -902
-5316 -1854 -448 -299 -813 -596 -1167 -951 -846 -847 -1333 -1778 -1457
-2790 -25 -203 -24 -657 0 -860 74 -597 254 -1120 576 -1665 834 -1417 2530
-2618 4700 -3330 1244 -407 2585 -644 4001 -705 297 -13 1045 -13 1340 0 1859
80 3586 460 5100 1123 892 391 1656 861 2325 1431 163 139 473 442 618 605
564 630 942 1313 1121 2027 119 473 147 1000 80 1474 -178 1259 -956 2434
-2247 3396 -1136 847 -2619 1492 -4271 1858 -858 191 -1595 289 -2581 346
-177 11 -1128 21 -1295 14z m1410 -1193 c649 -41 1089 -86 1630 -167 2000
-300 3797 -977 5005 -1884 450 -338 845 -729 1112 -1101 436 -609 641 -1232
620 -1888 -18 -563 -197 -1084 -555 -1611 -250 -369 -603 -740 -1012 -1066
-1139 -906 -2808 -1589 -4738 -1938 -1801 -327 -3766 -349 -5587 -65 -2749
429 -4980 1520 -6036 2952 -236 319 -417 671 -520 1012 -195 646 -151 1322
129 1955 89 203 172 352 308 553 609 899 1691 1686 3112 2263 1368 556 3023
902 4707 984 121 6 247 12 280 14 135 8 1383 -3 1545 -13z"/>
<path d="M5680 7215 l0 -2285 590 0 590 0 0 965 0 965 995 0 995 0 0 -410 0
-410 -865 0 -865 0 0 -555 0 -555 1116 0 1115 0 330 227 329 228 0 772 0 772
-24 18 c-13 10 -80 73 -149 139 l-126 120 149 133 150 133 -1 662 0 661 -297
350 -298 350 -1867 3 -1867 2 0 -2285z m3160 765 l0 -410 -990 0 -990 0 0 410
0 410 990 0 990 0 0 -410z"/>
<path d="M10500 8377 l0 -1122 133 -130 c72 -72 182 -179 243 -239 l112 -108
551 7 551 7 0 542 0 541 -105 95 -104 95 -1 718 0 717 -690 0 -690 0 0 -1123z"/>
<path d="M13880 8783 l0 -718 -107 -97 -108 -98 -657 0 -658 0 0 -1470 0
-1470 685 0 685 0 0 931 0 931 518 -7 518 -7 247 231 247 232 0 1130 0 1129
-685 0 -685 0 0 -717z"/>
<path d="M15730 7215 l0 -2285 620 0 620 0 0 1715 0 1715 678 0 678 0 187
-212 187 -212 0 -938 0 -938 -735 0 -735 0 0 -565 0 -565 1345 0 1345 0 0
1880 0 1881 -341 404 -341 405 -1754 0 -1754 0 0 -2285z"/>
</g>
</svg>
